<svg xmlns="http://www.w3.org/2000/svg" viewBox="0 0 1440 423.3"><defs><style>.cls-1{fill:#5a20b9;}.cls-2{opacity:0.8;}.cls-3{opacity:0.6;}.cls-4{opacity:0.4;}</style></defs><g id="Layer_2" data-name="Layer 2"><g id="Layer_1-2" data-name="Layer 1"><path class="cls-1" d="M1054.89,309c144.43-61.06,272.32-94.54,385.11-108.13V423.3H707.22A2218.58,2218.58,0,0,0,1054.89,309Z"/><g class="cls-2"><path class="cls-1" d="M0,377.54c280.77,32.13,653.16,22.07,1057.54-130.84,144.08-54.49,271-83.26,382.46-93.45v47.57c-112.79,13.59-240.68,47.07-385.11,108.13A2218.58,2218.58,0,0,1,707.22,423.3H0Z"/></g><g class="cls-3"><path class="cls-1" d="M1076.69,153.45C1214.53,118.08,1334.93,102.34,1440,101v52.23c-111.47,10.19-238.38,39-382.46,93.45C653.16,399.61,280.77,409.67,0,377.54V170.18C274.07,232.73,647.79,263.49,1076.69,153.45Z"/></g><g class="cls-4"><path class="cls-1" d="M1078.09,84.49c139-22,258.74-26.83,361.91-19.13V101c-105.07,1.32-225.47,17.06-363.31,52.43C647.79,263.49,274.07,232.73,0,170.18V0C264.14,88.38,633.47,154.87,1078.09,84.49Z"/></g></g></g></svg>